<svg xmlns="http://www.w3.org/2000/svg" viewBox="0 0 2000 1300" width="100%" height="100%" style="background:#FFFFFF;">

  <!-- Technical Blueprint Double Frame -->
  <rect width="100%" height="100%" fill="#FFFFFF"/>
  <rect x="15" y="15" width="1970" height="1270" fill="none" stroke="#000000" stroke-width="2"/>
  <rect x="20" y="20" width="1960" height="1260" fill="none" stroke="#000000" stroke-width="0.8"/>

  <style>
    text { font-family: -apple-system, BlinkMacSystemFont, "Segoe UI", Roboto, "Helvetica Neue", Arial, sans-serif; }
    .doc-badge { font-size: 11.5px; font-weight: 700; fill: #000000; letter-spacing: 1.2px; text-transform: uppercase; }
    .doc-title { font-size: 23px; font-weight: 800; fill: #000000; letter-spacing: -0.5px; }
    .doc-subtitle { font-size: 13px; font-weight: 400; fill: #374151; }
    
    .tbl-header { font-size: 13.5px; font-weight: 700; fill: #000000; }
    .tbl-tag { font-size: 10.5px; font-weight: 600; fill: #4B5563; text-transform: uppercase; }
    .tbl-field-pk { font-size: 11.5px; font-weight: 700; fill: #000000; font-family: ui-monospace, Menlo, monospace; }
    .tbl-field-fk { font-size: 11.5px; font-weight: 600; fill: #000000; font-family: ui-monospace, Menlo, monospace; }
    .tbl-field-dist { font-size: 11.5px; font-weight: 600; fill: #000000; font-style: italic; font-family: ui-monospace, Menlo, monospace; }
    .tbl-field-normal { font-size: 11.5px; font-weight: 500; fill: #1F2937; font-family: ui-monospace, Menlo, monospace; }
    .tbl-type { font-size: 11px; font-weight: 500; fill: #4B5563; }

    .badge-pk { font-size: 9.5px; font-weight: 800; fill: #FFFFFF; }
    .badge-fk { font-size: 9.5px; font-weight: 800; fill: #000000; }
    .badge-dist { font-size: 9.5px; font-weight: 800; fill: #000000; }

    .panel-header { font-size: 13.5px; font-weight: 800; fill: #000000; text-transform: uppercase; letter-spacing: 0.5px; }
    .panel-sec-title { font-size: 12px; font-weight: 700; fill: #000000; }
    .panel-body { font-size: 11.5px; font-weight: 400; fill: #1F2937; }
    .panel-bold { font-weight: 700; fill: #000000; }
    .panel-code { font-family: ui-monospace, Menlo, monospace; font-size: 11px; font-weight: 700; fill: #000000; }
  </style>


  <!-- HEADER -->
  <g id="Header" transform="translate(40, 32)">
    <rect width="1920" height="100" rx="6" fill="#FFFFFF" stroke="#000000" stroke-width="1.8"/>
    <line x1="0" y1="32" x2="1920" y2="32" stroke="#E5E7EB" stroke-width="1"/>
    <text x="24" y="22" class="doc-badge">NEXUS LOGISTICS SYSTEM ARCHITECTURE • DATABASE-PER-SERVICE SPECIFICATION</text>
    <text x="24" y="58" class="doc-title">9. PAYMENT-SERVICE (DỊCH VỤ QUẢN LÝ DÒNG TIỀN COD &amp; ĐỐI SOÁT TỰ ĐỘNG)</text>
    <text x="24" y="82" class="doc-subtitle">Theo dõi tiền thu hộ COD, quyết toán phiên nộp tiền bưu tá, tích hợp VietQR động &amp; gạch nợ tự động</text>
    
    <!-- Badges -->
    <rect x="1570" y="32" width="160" height="36" rx="4" fill="#F3F4F6" stroke="#000000" stroke-width="1.2"/>
    <text x="1650" y="55" font-size="12.5" font-weight="700" fill="#000000" text-anchor="middle">PORT :3011</text>

    <rect x="1750" y="32" width="170" height="36" rx="4" fill="#FFFFFF" stroke="#000000" stroke-width="1.2"/>
    <text x="1835" y="55" font-size="12.5" font-weight="700" fill="#000000" text-anchor="middle">DB: payment_db</text>
  </g>


  <!-- MAIN SERVICE CONTAINER -->
  <g id="ServiceBody" transform="translate(40, 150)">
    <rect width="1920" height="1060" rx="6" fill="#FFFFFF" stroke="#000000" stroke-width="1.6"/>

<g transform="translate(40, 30)">
  <rect width="480" height="404" rx="6" fill="#FFFFFF" stroke="#000000" stroke-width="1.4"/>
  <line x1="0" y1="36" x2="480" y2="36" stroke="#000000" stroke-width="1.2"/>
  <text x="14" y="23" class="tbl-header">CodRecord</text>
  <text x="466" y="23" class="tbl-tag" text-anchor="end">COD_RECORDS (THEO DÕI THU HỘ TIỀN)</text>
  <rect x="10" y="43" width="20" height="14" rx="2" fill="#000000"/>
  <text x="20" y="54" class="badge-pk" text-anchor="middle">PK</text>
  <text x="42" y="54" class="tbl-field-pk">id</text>
  <text x="468" y="54" class="tbl-type" text-anchor="end">VARCHAR(64) CUID NOT NULL</text>
  <rect x="8" y="67" width="28" height="14" rx="2" fill="#FFFFFF" stroke="#000000" stroke-width="1" stroke-dasharray="2 1.5"/>
  <text x="22" y="78" class="badge-dist" text-anchor="middle">DIST</text>
  <text x="42" y="78" class="tbl-field-dist">shipmentCode</text>
  <text x="468" y="78" class="tbl-type" text-anchor="end">VARCHAR(32) UNIQUE (NX-12345</text>
  <rect x="8" y="91" width="28" height="14" rx="2" fill="#FFFFFF" stroke="#000000" stroke-width="1" stroke-dasharray="2 1.5"/>
  <text x="22" y="102" class="badge-dist" text-anchor="middle">DIST</text>
  <text x="42" y="102" class="tbl-field-dist">merchantId</text>
  <text x="468" y="102" class="tbl-type" text-anchor="end">VARCHAR(64) CHỦ SHOP HƯỞNG C</text>
  <circle cx="18" cy="122" r="1.8" fill="#000000"/>
  <text x="30" y="126" class="tbl-field-normal">codAmount</text>
  <text x="468" y="126" class="tbl-type" text-anchor="end">FLOAT TIỀN CẦN THU (VND)</text>
  <circle cx="18" cy="146" r="1.8" fill="#000000"/>
  <text x="30" y="150" class="tbl-field-normal">currency</text>
  <text x="468" y="150" class="tbl-type" text-anchor="end">VARCHAR(8) DEFAULT &#x27;VND&#x27;</text>
  <circle cx="18" cy="170" r="1.8" fill="#000000"/>
  <text x="30" y="174" class="tbl-field-normal">paymentMethod</text>
  <text x="468" y="174" class="tbl-type" text-anchor="end">ENUM COD, BANK, VIETQR</text>
  <circle cx="18" cy="194" r="1.8" fill="#000000"/>
  <text x="30" y="198" class="tbl-field-normal">status</text>
  <text x="468" y="198" class="tbl-type" text-anchor="end">ENUM PENDING, COLLECTED</text>
  <rect x="8" y="211" width="28" height="14" rx="2" fill="#FFFFFF" stroke="#000000" stroke-width="1" stroke-dasharray="2 1.5"/>
  <text x="22" y="222" class="badge-dist" text-anchor="middle">DIST</text>
  <text x="42" y="222" class="tbl-field-dist">hubCode</text>
  <text x="468" y="222" class="tbl-type" text-anchor="end">VARCHAR(32) BƯU CỤC THU TIỀN</text>
  <rect x="8" y="235" width="28" height="14" rx="2" fill="#FFFFFF" stroke="#000000" stroke-width="1" stroke-dasharray="2 1.5"/>
  <text x="22" y="246" class="badge-dist" text-anchor="middle">DIST</text>
  <text x="42" y="246" class="tbl-field-dist">courierId</text>
  <text x="468" y="246" class="tbl-type" text-anchor="end">VARCHAR(64) TÀI XẾ THU TIỀN</text>
  <circle cx="18" cy="266" r="1.8" fill="#000000"/>
  <text x="30" y="270" class="tbl-field-normal">collectedAmount</text>
  <text x="468" y="270" class="tbl-type" text-anchor="end">FLOAT TIỀN THỰC THU</text>
  <circle cx="18" cy="290" r="1.8" fill="#000000"/>
  <text x="30" y="294" class="tbl-field-normal">collectedAt</text>
  <text x="468" y="294" class="tbl-type" text-anchor="end">TIMESTAMP THỜI ĐIỂM THU</text>
  <circle cx="18" cy="314" r="1.8" fill="#000000"/>
  <text x="30" y="318" class="tbl-field-normal">remittedAmount</text>
  <text x="468" y="318" class="tbl-type" text-anchor="end">FLOAT TIỀN NỘP BƯU CỤC</text>
  <circle cx="18" cy="338" r="1.8" fill="#000000"/>
  <text x="30" y="342" class="tbl-field-normal">remittedAt</text>
  <text x="468" y="342" class="tbl-type" text-anchor="end">TIMESTAMP THỜI ĐIỂM NỘP</text>
  <circle cx="18" cy="362" r="1.8" fill="#000000"/>
  <text x="30" y="366" class="tbl-field-normal">remittedBy</text>
  <text x="468" y="366" class="tbl-type" text-anchor="end">VARCHAR(64) TÀI XẾ NỘP TIỀN</text>
  <circle cx="18" cy="386" r="1.8" fill="#000000"/>
  <text x="30" y="390" class="tbl-field-normal">note</text>
  <text x="468" y="390" class="tbl-type" text-anchor="end">TEXT GHI CHÚ ĐỐI SOÁT</text>
</g>
<g transform="translate(680, 30)">
  <rect width="480" height="308" rx="6" fill="#FFFFFF" stroke="#000000" stroke-width="1.4"/>
  <line x1="0" y1="36" x2="480" y2="36" stroke="#000000" stroke-width="1.2"/>
  <text x="14" y="23" class="tbl-header">CodSettlementBatch</text>
  <text x="466" y="23" class="tbl-tag" text-anchor="end">COD_BATCHES (PHIÊN NỘP TIỀN ...</text>
  <rect x="10" y="43" width="20" height="14" rx="2" fill="#000000"/>
  <text x="20" y="54" class="badge-pk" text-anchor="middle">PK</text>
  <text x="42" y="54" class="tbl-field-pk">id</text>
  <text x="468" y="54" class="tbl-type" text-anchor="end">VARCHAR(64) CUID NOT NULL</text>
  <circle cx="18" cy="74" r="1.8" fill="#000000"/>
  <text x="30" y="78" class="tbl-field-normal">settlementCode</text>
  <text x="468" y="78" class="tbl-type" text-anchor="end">VARCHAR(32) UNIQUE (STL-1234</text>
  <circle cx="18" cy="98" r="1.8" fill="#000000"/>
  <text x="30" y="102" class="tbl-field-normal">reportDate</text>
  <text x="468" y="102" class="tbl-type" text-anchor="end">TIMESTAMP NGÀY NỘP BÁO CÁO</text>
  <rect x="8" y="115" width="28" height="14" rx="2" fill="#FFFFFF" stroke="#000000" stroke-width="1" stroke-dasharray="2 1.5"/>
  <text x="22" y="126" class="badge-dist" text-anchor="middle">DIST</text>
  <text x="42" y="126" class="tbl-field-dist">hubCode</text>
  <text x="468" y="126" class="tbl-type" text-anchor="end">VARCHAR(32) BƯU CỤC NỘP TIỀN</text>
  <rect x="8" y="139" width="28" height="14" rx="2" fill="#FFFFFF" stroke="#000000" stroke-width="1" stroke-dasharray="2 1.5"/>
  <text x="22" y="150" class="badge-dist" text-anchor="middle">DIST</text>
  <text x="42" y="150" class="tbl-field-dist">courierId</text>
  <text x="468" y="150" class="tbl-type" text-anchor="end">VARCHAR(64) TÀI XẾ NỘP TIỀN</text>
  <circle cx="18" cy="170" r="1.8" fill="#000000"/>
  <text x="30" y="174" class="tbl-field-normal">totalAmount</text>
  <text x="468" y="174" class="tbl-type" text-anchor="end">FLOAT TỔNG TIỀN NỘP CA</text>
  <circle cx="18" cy="194" r="1.8" fill="#000000"/>
  <text x="30" y="198" class="tbl-field-normal">status</text>
  <text x="468" y="198" class="tbl-type" text-anchor="end">ENUM WAITING, PAID, CONFIRME</text>
  <circle cx="18" cy="218" r="1.8" fill="#000000"/>
  <text x="30" y="222" class="tbl-field-normal">qrUrl</text>
  <text x="468" y="222" class="tbl-type" text-anchor="end">VARCHAR(255) MÃ VIETQR ĐỘNG</text>
  <circle cx="18" cy="242" r="1.8" fill="#000000"/>
  <text x="30" y="246" class="tbl-field-normal">transferMemo</text>
  <text x="468" y="246" class="tbl-type" text-anchor="end">VARCHAR(64) CÚ PHÁP DUY NHẤT</text>
  <circle cx="18" cy="266" r="1.8" fill="#000000"/>
  <text x="30" y="270" class="tbl-field-normal">confirmedBy</text>
  <text x="468" y="270" class="tbl-type" text-anchor="end">VARCHAR(64) KẾ TOÁN BƯU CỤC</text>
  <circle cx="18" cy="290" r="1.8" fill="#000000"/>
  <text x="30" y="294" class="tbl-field-normal">confirmedAt</text>
  <text x="468" y="294" class="tbl-type" text-anchor="end">TIMESTAMP THỜI ĐIỂM DUYỆT</text>
</g>
<g transform="translate(680, 383)">
  <rect width="480" height="164" rx="6" fill="#FFFFFF" stroke="#000000" stroke-width="1.4"/>
  <line x1="0" y1="36" x2="480" y2="36" stroke="#000000" stroke-width="1.2"/>
  <text x="14" y="23" class="tbl-header">CodSettlementItem</text>
  <text x="466" y="23" class="tbl-tag" text-anchor="end">COD_ITEMS (DANH SÁCH ĐƠN PHI...</text>
  <rect x="10" y="43" width="20" height="14" rx="2" fill="#000000"/>
  <text x="20" y="54" class="badge-pk" text-anchor="middle">PK</text>
  <text x="42" y="54" class="tbl-field-pk">id</text>
  <text x="468" y="54" class="tbl-type" text-anchor="end">VARCHAR(64) CUID NOT NULL</text>
  <rect x="10" y="67" width="20" height="14" rx="2" fill="#FFFFFF" stroke="#000000" stroke-width="1"/>
  <text x="20" y="78" class="badge-fk" text-anchor="middle">FK</text>
  <text x="42" y="78" class="tbl-field-fk">batchId</text>
  <text x="468" y="78" class="tbl-type" text-anchor="end">VARCHAR(64) FK -&gt; Batch.id</text>
  <rect x="8" y="91" width="28" height="14" rx="2" fill="#FFFFFF" stroke="#000000" stroke-width="1" stroke-dasharray="2 1.5"/>
  <text x="22" y="102" class="badge-dist" text-anchor="middle">DIST</text>
  <text x="42" y="102" class="tbl-field-dist">codRecordId</text>
  <text x="468" y="102" class="tbl-type" text-anchor="end">VARCHAR(64) FK-dist CodRecor</text>
  <rect x="8" y="115" width="28" height="14" rx="2" fill="#FFFFFF" stroke="#000000" stroke-width="1" stroke-dasharray="2 1.5"/>
  <text x="22" y="126" class="badge-dist" text-anchor="middle">DIST</text>
  <text x="42" y="126" class="tbl-field-dist">shipmentCode</text>
  <text x="468" y="126" class="tbl-type" text-anchor="end">VARCHAR(32) MÃ VẬN ĐƠN CA</text>
  <circle cx="18" cy="146" r="1.8" fill="#000000"/>
  <text x="30" y="150" class="tbl-field-normal">amount</text>
  <text x="468" y="150" class="tbl-type" text-anchor="end">FLOAT SỐ TIỀN KHỚP ĐƠN</text>
</g>
<g transform="translate(40, 479)">
  <rect width="480" height="260" rx="6" fill="#FFFFFF" stroke="#000000" stroke-width="1.4"/>
  <line x1="0" y1="36" x2="480" y2="36" stroke="#000000" stroke-width="1.2"/>
  <text x="14" y="23" class="tbl-header">CodSettlementPaymentEvent</text>
  <text x="466" y="23" class="tbl-tag" text-anchor="end">PAYMENT_EVENTS (WEBHOOK NGÂN...</text>
  <rect x="10" y="43" width="20" height="14" rx="2" fill="#000000"/>
  <text x="20" y="54" class="badge-pk" text-anchor="middle">PK</text>
  <text x="42" y="54" class="tbl-field-pk">id</text>
  <text x="468" y="54" class="tbl-type" text-anchor="end">VARCHAR(64) CUID NOT NULL</text>
  <circle cx="18" cy="74" r="1.8" fill="#000000"/>
  <text x="30" y="78" class="tbl-field-normal">provider</text>
  <text x="468" y="78" class="tbl-type" text-anchor="end">VARCHAR(32) VIETQR / PAYOS</text>
  <circle cx="18" cy="98" r="1.8" fill="#000000"/>
  <text x="30" y="102" class="tbl-field-normal">providerEventId</text>
  <text x="468" y="102" class="tbl-type" text-anchor="end">VARCHAR(128) MÃ GD NGÂN HÀNG</text>
  <rect x="8" y="115" width="28" height="14" rx="2" fill="#FFFFFF" stroke="#000000" stroke-width="1" stroke-dasharray="2 1.5"/>
  <text x="22" y="126" class="badge-dist" text-anchor="middle">DIST</text>
  <text x="42" y="126" class="tbl-field-dist">settlementBatchId</text>
  <text x="468" y="126" class="tbl-type" text-anchor="end">VARCHAR(64) ÁNH XẠ ĐỢT NỘP C</text>
  <circle cx="18" cy="146" r="1.8" fill="#000000"/>
  <text x="30" y="150" class="tbl-field-normal">amount</text>
  <text x="468" y="150" class="tbl-type" text-anchor="end">FLOAT SỐ TIỀN GD</text>
  <circle cx="18" cy="170" r="1.8" fill="#000000"/>
  <text x="30" y="174" class="tbl-field-normal">accountNumber</text>
  <text x="468" y="174" class="tbl-type" text-anchor="end">VARCHAR(32) SỐ TÀI KHOẢN NHẬ</text>
  <circle cx="18" cy="194" r="1.8" fill="#000000"/>
  <text x="30" y="198" class="tbl-field-normal">referenceCode</text>
  <text x="468" y="198" class="tbl-type" text-anchor="end">VARCHAR(64) MÃ THAM CHIẾU GD</text>
  <circle cx="18" cy="218" r="1.8" fill="#000000"/>
  <text x="30" y="222" class="tbl-field-normal">processingStatus</text>
  <text x="468" y="222" class="tbl-type" text-anchor="end">VARCHAR(32) SUCCESS, PROCESS</text>
  <circle cx="18" cy="242" r="1.8" fill="#000000"/>
  <text x="30" y="246" class="tbl-field-normal">rawPayload</text>
  <text x="468" y="246" class="tbl-type" text-anchor="end">JSONB WEBHOOK GỐC NGÂN HÀNG</text>
</g>
<g transform="translate(40, 784)">
  <rect width="480" height="140" rx="6" fill="#FFFFFF" stroke="#000000" stroke-width="1.4"/>
  <line x1="0" y1="36" x2="480" y2="36" stroke="#000000" stroke-width="1.2"/>
  <text x="14" y="23" class="tbl-header">IdempotencyRecord (Pay)</text>
  <text x="466" y="23" class="tbl-tag" text-anchor="end">IDEMPOTENCY_RECORDS</text>
  <rect x="10" y="43" width="20" height="14" rx="2" fill="#000000"/>
  <text x="20" y="54" class="badge-pk" text-anchor="middle">PK</text>
  <text x="42" y="54" class="tbl-field-pk">id</text>
  <text x="468" y="54" class="tbl-type" text-anchor="end">VARCHAR(64) CUID NOT NULL</text>
  <circle cx="18" cy="74" r="1.8" fill="#000000"/>
  <text x="30" y="78" class="tbl-field-normal">idempotencyKey</text>
  <text x="468" y="78" class="tbl-type" text-anchor="end">VARCHAR(128) UNIQUE CHỐNG TR</text>
  <circle cx="18" cy="98" r="1.8" fill="#000000"/>
  <text x="30" y="102" class="tbl-field-normal">scope</text>
  <text x="468" y="102" class="tbl-type" text-anchor="end">VARCHAR(64) SETTLEMENT_WEBHO</text>
  <circle cx="18" cy="122" r="1.8" fill="#000000"/>
  <text x="30" y="126" class="tbl-field-normal">responsePayload</text>
  <text x="468" y="126" class="tbl-type" text-anchor="end">JSONB KẾT QUẢ CACHED</text>
</g>
<g transform="translate(680, 592)">
  <rect width="480" height="164" rx="6" fill="#FFFFFF" stroke="#000000" stroke-width="1.4"/>
  <line x1="0" y1="36" x2="480" y2="36" stroke="#000000" stroke-width="1.2"/>
  <text x="14" y="23" class="tbl-header">OutboxEvent (Payment)</text>
  <text x="466" y="23" class="tbl-tag" text-anchor="end">OUTBOX_EVENTS</text>
  <rect x="10" y="43" width="20" height="14" rx="2" fill="#000000"/>
  <text x="20" y="54" class="badge-pk" text-anchor="middle">PK</text>
  <text x="42" y="54" class="tbl-field-pk">id</text>
  <text x="468" y="54" class="tbl-type" text-anchor="end">VARCHAR(64) CUID NOT NULL</text>
  <circle cx="18" cy="74" r="1.8" fill="#000000"/>
  <text x="30" y="78" class="tbl-field-normal">eventId</text>
  <text x="468" y="78" class="tbl-type" text-anchor="end">VARCHAR(64) UNIQUE</text>
  <circle cx="18" cy="98" r="1.8" fill="#000000"/>
  <text x="30" y="102" class="tbl-field-normal">eventType</text>
  <text x="468" y="102" class="tbl-type" text-anchor="end">VARCHAR(64) PAYMENT.COD_SETT</text>
  <circle cx="18" cy="122" r="1.8" fill="#000000"/>
  <text x="30" y="126" class="tbl-field-normal">routingKey</text>
  <text x="468" y="126" class="tbl-type" text-anchor="end">VARCHAR(64) payment.settled</text>
  <circle cx="18" cy="146" r="1.8" fill="#000000"/>
  <text x="30" y="150" class="tbl-field-normal">payload</text>
  <text x="468" y="150" class="tbl-type" text-anchor="end">JSONB QUYẾT TOÁN TÀI CHÍNH</text>
</g>

    <!-- CodRecord (1) -> CodSettlementItem (N) via Center Highway Lane 2 -->
      <path d="M 520 80 L 600 80 L 600 433 L 680 433" stroke="#000000" stroke-width="1.8" fill="none"/>
  <line x1="527.0" y1="74.0" x2="527.0" y2="86.0" stroke="#000000" stroke-width="1.8"/>
  <line x1="533.0" y1="74.0" x2="533.0" y2="86.0" stroke="#000000" stroke-width="1.8"/>
  <text x="542.0" y="75.0" font-size="11" font-weight="700" fill="#000000" text-anchor="start">1</text>
  <path d="M 667.0 433.0 L 680.0 426.0 M 667.0 433.0 L 680.0 440.0" stroke="#000000" stroke-width="1.8" fill="none"/>
  <line x1="663.0" y1="427.0" x2="663.0" y2="439.0" stroke="#000000" stroke-width="1.8"/>
  <text x="654.0" y="428.0" font-size="11" font-weight="700" fill="#000000" text-anchor="end">N</text>
    <!-- CodSettlementBatch (1) -> CodSettlementItem (N) via Center Highway Lane 3 -->
      <path d="M 680 140 L 640 140 L 640 463 L 680 463" stroke="#000000" stroke-width="1.8" fill="none"/>
  <line x1="673.0" y1="134.0" x2="673.0" y2="146.0" stroke="#000000" stroke-width="1.8"/>
  <line x1="667.0" y1="134.0" x2="667.0" y2="146.0" stroke="#000000" stroke-width="1.8"/>
  <text x="658.0" y="135.0" font-size="11" font-weight="700" fill="#000000" text-anchor="end">1</text>
  <path d="M 667.0 463.0 L 680.0 456.0 M 667.0 463.0 L 680.0 470.0" stroke="#000000" stroke-width="1.8" fill="none"/>
  <line x1="663.0" y1="457.0" x2="663.0" y2="469.0" stroke="#000000" stroke-width="1.8"/>
  <text x="654.0" y="458.0" font-size="11" font-weight="700" fill="#000000" text-anchor="end">N</text>
    <!-- CodSettlementPaymentEvent (N) -> CodSettlementBatch (1) via Center Highway Lane 2 -->
      <path d="M 520 529 L 600 529 L 600 200 L 680 200" stroke="#000000" stroke-width="1.8" fill="none"/>
  <path d="M 533.0 529.0 L 520.0 522.0 M 533.0 529.0 L 520.0 536.0" stroke="#000000" stroke-width="1.8" fill="none"/>
  <line x1="537.0" y1="523.0" x2="537.0" y2="535.0" stroke="#000000" stroke-width="1.8"/>
  <text x="546.0" y="524.0" font-size="11" font-weight="700" fill="#000000" text-anchor="start">N</text>
  <line x1="673.0" y1="194.0" x2="673.0" y2="206.0" stroke="#000000" stroke-width="1.8"/>
  <line x1="667.0" y1="194.0" x2="667.0" y2="206.0" stroke="#000000" stroke-width="1.8"/>
  <text x="658.0" y="195.0" font-size="11" font-weight="700" fill="#000000" text-anchor="end">1</text>
    
<g transform="translate(1200, 20)">
  <rect width="700" height="1020" rx="6" fill="#FFFFFF" stroke="#000000" stroke-width="1.4"/>
  <rect x="0" y="0" width="700" height="42" rx="6" fill="#F3F4F6" stroke="#000000" stroke-width="1"/>
  <rect x="14" y="12" width="6" height="18" rx="1" fill="#000000"/>
  <text x="28" y="26" class="panel-header">GIẢI THÍCH SƠ BỘ &amp; QUY TẮC DỮ LIỆU: PAYMENT-SERVICE</text>
  <rect x="494" y="9" width="192" height="24" rx="4" fill="#FFFFFF" stroke="#000000" stroke-width="1"/>
  <text x="590.0" y="25" font-size="10" font-weight="700" fill="#000000" text-anchor="middle">FINANCIAL RECONCILIATION</text>
  <text x="18" y="70" class="panel-sec-title">▶ QUẢN TRỊ DÒNG TIỀN COD &amp; NỘP TIỀN CA PHÁT</text>
  <circle cx="25" cy="88" r="2" fill="#000000"/>
  <text x="36" y="92" class="panel-body">Ghi nhận công nợ đơn hàng: CodRecord theo dõi chính xác từng đồng tiền mặt</text>
  <text x="36" y="110" class="panel-body">COD cần thu, số tiền thực tế tài xế nhận và thời điểm nộp.</text>
  <circle cx="25" cy="128" r="2" fill="#000000"/>
  <text x="36" y="132" class="panel-body">Phiên nộp tiền ca (CodSettlementBatch): Hết ca phát, bưu tá tổng hợp toàn</text>
  <text x="36" y="150" class="panel-body">bộ tiền mặt thu được vào một phiên nộp duy nhất.</text>
  <circle cx="25" cy="168" r="2" fill="#000000"/>
  <text x="36" y="172" class="panel-body">Tích hợp VietQR động: Tự động sinh mã VietQR chuẩn NAPAS với transferMemo</text>
  <text x="36" y="190" class="panel-body">định danh duy nhất (VD: STL123456) giúp tài xế quét chuyển khoản ngay trên</text>
  <text x="36" y="208" class="panel-body">app.</text>
  <text x="18" y="240" class="panel-sec-title">▶ TỰ ĐỘNG GẠCH NỢ QUA WEBHOOK (AUTOMATED RECONCILIATION)</text>
  <circle cx="25" cy="258" r="2" fill="#000000"/>
  <text x="36" y="262" class="panel-body">Nhận biến động số dư qua Webhook PayOS/VietQR lưu vào</text>
  <text x="36" y="280" class="panel-body">CodSettlementPaymentEvent.</text>
  <circle cx="25" cy="298" r="2" fill="#000000"/>
  <text x="36" y="302" class="panel-body">Cơ chế Idempotency: Kiểm tra khóa trùng giao dịch (providerEventId), gạch</text>
  <text x="36" y="320" class="panel-body">nợ tức thời phiên nộp tiền và tự động cộng số dư ví cho Shop.</text>
  <text x="18" y="352" class="panel-sec-title">▶ CƠ CHẾ LIÊN KẾT PHÂN TÁN (SAGA LINKAGE)</text>
  <circle cx="25" cy="370" r="2" fill="#000000"/>
  <text x="36" y="374" class="panel-body">shipmentCode: Ánh xạ chuẩn xác tới đơn hàng trên shipment-service.</text>
  <circle cx="25" cy="392" r="2" fill="#000000"/>
  <text x="36" y="396" class="panel-body">courierId / hubCode: Đối soát công nợ bưu tá với thủ quỹ bưu cục.</text>
  <rect x="14" y="982" width="672" height="26" rx="4" fill="#F9FAFB" stroke="#000000" stroke-width="1"/>
  <text x="350.0" y="999" font-size="11" font-weight="600" fill="#111827" text-anchor="middle">Engine: PostgreSQL 16 | Gateway: VietQR / PayOS Webhook | Reconciliation: Automated Dynamic QR Matching</text>
</g>
  </g>

  <!-- SAGA CONTEXT FOOTER -->
  <g id="FooterSaga" transform="translate(40, 1230)">
    <rect width="1920" height="50" rx="6" fill="#F9FAFB" stroke="#000000" stroke-width="1.4"/>
    <circle cx="25" cy="25" r="5" fill="#000000"/>
    <text x="42" y="29" font-size="12" font-weight="700" fill="#000000">CƠ CHẾ LIÊN KẾT PHÂN TÁN (SAGA):</text>
    <text x="310" y="29" font-size="11.5" fill="#1F2937">Phát hành sự kiện PAYMENT.COD_SETTLED, WALLET_CREDITED qua RabbitMQ tới reporting-service</text>
    <text x="1900" y="29" font-size="11" font-weight="600" fill="#4B5563" text-anchor="end">Nexus Software Engineering Thesis</text>
  </g>
</svg>
