<svg xmlns="http://www.w3.org/2000/svg" viewBox="0 0 2000 1300" width="100%" height="100%" style="background:#FFFFFF;">

  <defs>
    <marker id="crow-many" markerWidth="14" markerHeight="14" refX="10" refY="7" orient="auto">
      <path d="M 0 0 L 10 7 L 0 14 M 10 0 L 10 14" stroke="#000000" stroke-width="1.8" fill="none"/>
    </marker>
    <marker id="crow-one" markerWidth="14" markerHeight="14" refX="10" refY="7" orient="auto">
      <line x1="5" y1="2" x2="5" y2="12" stroke="#000000" stroke-width="1.8"/>
      <line x1="9" y1="2" x2="9" y2="12" stroke="#000000" stroke-width="1.8"/>
    </marker>
    <marker id="arrow-dist" markerWidth="12" markerHeight="12" refX="9" refY="6" orient="auto">
      <path d="M 0 1 L 9 6 L 0 11 z" fill="#000000"/>
    </marker>
  </defs>

  <!-- Technical Blueprint Double Frame -->
  <rect width="100%" height="100%" fill="#FFFFFF"/>
  <rect x="15" y="15" width="1970" height="1270" fill="none" stroke="#000000" stroke-width="2"/>
  <rect x="20" y="20" width="1960" height="1260" fill="none" stroke="#000000" stroke-width="0.8"/>

  <style>
    text { font-family: -apple-system, BlinkMacSystemFont, "Segoe UI", Roboto, "Helvetica Neue", Arial, sans-serif; }
    .doc-badge { font-size: 11.5px; font-weight: 700; fill: #000000; letter-spacing: 1.2px; text-transform: uppercase; }
    .doc-title { font-size: 23px; font-weight: 800; fill: #000000; letter-spacing: -0.5px; }
    .doc-subtitle { font-size: 13px; font-weight: 400; fill: #374151; }
    
    .tbl-header { font-size: 13.5px; font-weight: 700; fill: #000000; }
    .tbl-tag { font-size: 10.5px; font-weight: 600; fill: #4B5563; text-transform: uppercase; }
    .tbl-field-pk { font-size: 11.5px; font-weight: 700; fill: #000000; font-family: ui-monospace, Menlo, monospace; }
    .tbl-field-fk { font-size: 11.5px; font-weight: 600; fill: #000000; font-family: ui-monospace, Menlo, monospace; }
    .tbl-field-dist { font-size: 11.5px; font-weight: 600; fill: #000000; font-style: italic; font-family: ui-monospace, Menlo, monospace; }
    .tbl-field-normal { font-size: 11.5px; font-weight: 500; fill: #1F2937; font-family: ui-monospace, Menlo, monospace; }
    .tbl-type { font-size: 11px; font-weight: 500; fill: #4B5563; }

    .badge-pk { font-size: 9.5px; font-weight: 800; fill: #FFFFFF; }
    .badge-fk { font-size: 9.5px; font-weight: 800; fill: #000000; }
    .badge-dist { font-size: 9.5px; font-weight: 800; fill: #000000; }

    .panel-header { font-size: 13.5px; font-weight: 800; fill: #000000; text-transform: uppercase; letter-spacing: 0.5px; }
    .panel-sec-title { font-size: 12px; font-weight: 700; fill: #000000; }
    .panel-body { font-size: 11.5px; font-weight: 400; fill: #1F2937; }
    .panel-bold { font-weight: 700; fill: #000000; }
    .panel-code { font-family: ui-monospace, Menlo, monospace; font-size: 11px; font-weight: 700; fill: #000000; }
  </style>


  <!-- HEADER -->
  <g id="Header" transform="translate(40, 32)">
    <rect width="1920" height="100" rx="6" fill="#FFFFFF" stroke="#000000" stroke-width="1.8"/>
    <line x1="0" y1="32" x2="1920" y2="32" stroke="#E5E7EB" stroke-width="1"/>
    <text x="24" y="22" class="doc-badge">NEXUS LOGISTICS SYSTEM ARCHITECTURE • DATABASE-PER-SERVICE SPECIFICATION</text>
    <text x="24" y="58" class="doc-title">11. REPORTING-SERVICE (DỊCH VỤ BÁO CÁO HIỆU SUẤT KPI &amp; DỮ LIỆU TỔNG HỢP)</text>
    <text x="24" y="82" class="doc-subtitle">Lưu trữ chỉ số KPI bưu cục ngày/tháng, nhật ký tiến trình tổng hợp số liệu và bản chiếu trạng thái</text>
    
    <!-- Badges -->
    <rect x="1570" y="32" width="160" height="36" rx="4" fill="#F3F4F6" stroke="#000000" stroke-width="1.2"/>
    <text x="1650" y="55" font-size="12.5" font-weight="700" fill="#000000" text-anchor="middle">PORT :3009</text>

    <rect x="1750" y="32" width="170" height="36" rx="4" fill="#FFFFFF" stroke="#000000" stroke-width="1.2"/>
    <text x="1835" y="55" font-size="12.5" font-weight="700" fill="#000000" text-anchor="middle">DB: reporting_db</text>
  </g>


  <!-- MAIN SERVICE CONTAINER -->
  <g id="ServiceBody" transform="translate(40, 150)">
    <rect width="1920" height="1060" rx="6" fill="#FFFFFF" stroke="#000000" stroke-width="1.6"/>

<g transform="translate(40, 80)">
  <rect width="480" height="284" rx="6" fill="#FFFFFF" stroke="#000000" stroke-width="1.4"/>
  <line x1="0" y1="36" x2="480" y2="36" stroke="#000000" stroke-width="1.2"/>
  <text x="14" y="23" class="tbl-header">KpiDaily</text>
  <text x="466" y="23" class="tbl-tag" text-anchor="end">KPI_DAILIES (CHỈ SỐ HIỆU SUẤT NGÀY)</text>
  <rect x="10" y="43" width="20" height="14" rx="2" fill="#000000"/>
  <text x="20" y="54" class="badge-pk" text-anchor="middle">PK</text>
  <text x="42" y="54" class="tbl-field-pk">id</text>
  <text x="468" y="54" class="tbl-type" text-anchor="end">VARCHAR(64) CUID NOT NULL</text>
  <circle cx="18" cy="74" r="1.8" fill="#000000"/>
  <text x="30" y="78" class="tbl-field-normal">reportDate</text>
  <text x="468" y="78" class="tbl-type" text-anchor="end">DATE INDEX NGÀY BÁO CÁO</text>
  <rect x="8" y="91" width="28" height="14" rx="2" fill="#FFFFFF" stroke="#000000" stroke-width="1" stroke-dasharray="2 1.5"/>
  <text x="22" y="102" class="badge-dist" text-anchor="middle">DIST</text>
  <text x="42" y="102" class="tbl-field-dist">hubCode</text>
  <text x="468" y="102" class="tbl-type" text-anchor="end">VARCHAR(32) BƯU CỤC THỐNG KÊ</text>
  <circle cx="18" cy="122" r="1.8" fill="#000000"/>
  <text x="30" y="126" class="tbl-field-normal">totalInbound</text>
  <text x="468" y="126" class="tbl-type" text-anchor="end">INT TỔNG ĐƠN NHẬP KHO</text>
  <circle cx="18" cy="146" r="1.8" fill="#000000"/>
  <text x="30" y="150" class="tbl-field-normal">totalOutbound</text>
  <text x="468" y="150" class="tbl-type" text-anchor="end">INT TỔNG ĐƠN XUẤT KHO</text>
  <circle cx="18" cy="170" r="1.8" fill="#000000"/>
  <text x="30" y="174" class="tbl-field-normal">totalDelivered</text>
  <text x="468" y="174" class="tbl-type" text-anchor="end">INT SỐ ĐƠN GIAO THÀNH CÔNG</text>
  <circle cx="18" cy="194" r="1.8" fill="#000000"/>
  <text x="30" y="198" class="tbl-field-normal">totalFailed</text>
  <text x="468" y="198" class="tbl-type" text-anchor="end">INT SỐ ĐƠN GIAO THẤT BẠI</text>
  <circle cx="18" cy="218" r="1.8" fill="#000000"/>
  <text x="30" y="222" class="tbl-field-normal">totalCodCollected</text>
  <text x="468" y="222" class="tbl-type" text-anchor="end">FLOAT TỔNG TIỀN COD THU TRON</text>
  <circle cx="18" cy="242" r="1.8" fill="#000000"/>
  <text x="30" y="246" class="tbl-field-normal">slaSuccessRate</text>
  <text x="468" y="246" class="tbl-type" text-anchor="end">FLOAT TỶ LỆ ĐẠT CHUẨN SLA (0</text>
  <circle cx="18" cy="266" r="1.8" fill="#000000"/>
  <text x="30" y="270" class="tbl-field-normal">createdAt</text>
  <text x="468" y="270" class="tbl-type" text-anchor="end">TIMESTAMP DEFAULT NOW()</text>
</g>
<g transform="translate(680, 80)">
  <rect width="480" height="260" rx="6" fill="#FFFFFF" stroke="#000000" stroke-width="1.4"/>
  <line x1="0" y1="36" x2="480" y2="36" stroke="#000000" stroke-width="1.2"/>
  <text x="14" y="23" class="tbl-header">KpiMonthly</text>
  <text x="466" y="23" class="tbl-tag" text-anchor="end">KPI_MONTHLIES (TỔNG HỢP THÁNG)</text>
  <rect x="10" y="43" width="20" height="14" rx="2" fill="#000000"/>
  <text x="20" y="54" class="badge-pk" text-anchor="middle">PK</text>
  <text x="42" y="54" class="tbl-field-pk">id</text>
  <text x="468" y="54" class="tbl-type" text-anchor="end">VARCHAR(64) CUID NOT NULL</text>
  <circle cx="18" cy="74" r="1.8" fill="#000000"/>
  <text x="30" y="78" class="tbl-field-normal">monthYear</text>
  <text x="468" y="78" class="tbl-type" text-anchor="end">VARCHAR(7) INDEX (2026-09)</text>
  <rect x="8" y="91" width="28" height="14" rx="2" fill="#FFFFFF" stroke="#000000" stroke-width="1" stroke-dasharray="2 1.5"/>
  <text x="22" y="102" class="badge-dist" text-anchor="middle">DIST</text>
  <text x="42" y="102" class="tbl-field-dist">hubCode</text>
  <text x="468" y="102" class="tbl-type" text-anchor="end">VARCHAR(32) BƯU CỤC THỐNG KÊ</text>
  <circle cx="18" cy="122" r="1.8" fill="#000000"/>
  <text x="30" y="126" class="tbl-field-normal">monthlyVolume</text>
  <text x="468" y="126" class="tbl-type" text-anchor="end">INT TỔNG SẢN LƯỢNG THÁNG</text>
  <circle cx="18" cy="146" r="1.8" fill="#000000"/>
  <text x="30" y="150" class="tbl-field-normal">monthlyRevenue</text>
  <text x="468" y="150" class="tbl-type" text-anchor="end">FLOAT TỔNG DOANH THU CƯỚC TH</text>
  <circle cx="18" cy="170" r="1.8" fill="#000000"/>
  <text x="30" y="174" class="tbl-field-normal">monthlyCodRemitted</text>
  <text x="468" y="174" class="tbl-type" text-anchor="end">FLOAT TỔNG TIỀN COD ĐÃ ĐỐI S</text>
  <circle cx="18" cy="194" r="1.8" fill="#000000"/>
  <text x="30" y="198" class="tbl-field-normal">lossRatio</text>
  <text x="468" y="198" class="tbl-type" text-anchor="end">FLOAT TỶ LỆ THẤT THOÁT / HƯ</text>
  <circle cx="18" cy="218" r="1.8" fill="#000000"/>
  <text x="30" y="222" class="tbl-field-normal">onTimeDeliveryPct</text>
  <text x="468" y="222" class="tbl-type" text-anchor="end">FLOAT TỶ LỆ GIAO ĐÚNG HẠN TO</text>
  <circle cx="18" cy="242" r="1.8" fill="#000000"/>
  <text x="30" y="246" class="tbl-field-normal">createdAt</text>
  <text x="468" y="246" class="tbl-type" text-anchor="end">TIMESTAMP DEFAULT NOW()</text>
</g>
<g transform="translate(40, 414)">
  <rect width="480" height="212" rx="6" fill="#FFFFFF" stroke="#000000" stroke-width="1.4"/>
  <line x1="0" y1="36" x2="480" y2="36" stroke="#000000" stroke-width="1.2"/>
  <text x="14" y="23" class="tbl-header">AggregationJob</text>
  <text x="466" y="23" class="tbl-tag" text-anchor="end">AGGREGATION_JOBS (TIẾN TRÌNH...</text>
  <rect x="10" y="43" width="20" height="14" rx="2" fill="#000000"/>
  <text x="20" y="54" class="badge-pk" text-anchor="middle">PK</text>
  <text x="42" y="54" class="tbl-field-pk">id</text>
  <text x="468" y="54" class="tbl-type" text-anchor="end">VARCHAR(64) CUID NOT NULL</text>
  <circle cx="18" cy="74" r="1.8" fill="#000000"/>
  <text x="30" y="78" class="tbl-field-normal">jobName</text>
  <text x="468" y="78" class="tbl-type" text-anchor="end">VARCHAR(64) DAILY_AGGREGATE,</text>
  <circle cx="18" cy="98" r="1.8" fill="#000000"/>
  <text x="30" y="102" class="tbl-field-normal">status</text>
  <text x="468" y="102" class="tbl-type" text-anchor="end">ENUM RUNNING, SUCCESS, FAILE</text>
  <circle cx="18" cy="122" r="1.8" fill="#000000"/>
  <text x="30" y="126" class="tbl-field-normal">startedAt</text>
  <text x="468" y="126" class="tbl-type" text-anchor="end">TIMESTAMP MỐC KHỞI CHẠY CRON</text>
  <circle cx="18" cy="146" r="1.8" fill="#000000"/>
  <text x="30" y="150" class="tbl-field-normal">finishedAt</text>
  <text x="468" y="150" class="tbl-type" text-anchor="end">TIMESTAMP MỐC HOÀN THÀNH TIẾ</text>
  <circle cx="18" cy="170" r="1.8" fill="#000000"/>
  <text x="30" y="174" class="tbl-field-normal">processedRecords</text>
  <text x="468" y="174" class="tbl-type" text-anchor="end">INT SỐ BẢN GHI ĐÃ TÍNH TOÁN</text>
  <circle cx="18" cy="194" r="1.8" fill="#000000"/>
  <text x="30" y="198" class="tbl-field-normal">errorMessage</text>
  <text x="468" y="198" class="tbl-type" text-anchor="end">TEXT LOG LỖI NẾU CÓ</text>
</g>
<g transform="translate(680, 390)">
  <rect width="480" height="188" rx="6" fill="#FFFFFF" stroke="#000000" stroke-width="1.4"/>
  <line x1="0" y1="36" x2="480" y2="36" stroke="#000000" stroke-width="1.2"/>
  <text x="14" y="23" class="tbl-header">ShipmentStatusProjection</text>
  <text x="466" y="23" class="tbl-tag" text-anchor="end">STATUS_PROJECTIONS (BẢN CHIẾ...</text>
  <rect x="10" y="43" width="20" height="14" rx="2" fill="#000000"/>
  <text x="20" y="54" class="badge-pk" text-anchor="middle">PK</text>
  <text x="42" y="54" class="tbl-field-pk">id</text>
  <text x="468" y="54" class="tbl-type" text-anchor="end">VARCHAR(64) CUID NOT NULL</text>
  <rect x="8" y="67" width="28" height="14" rx="2" fill="#FFFFFF" stroke="#000000" stroke-width="1" stroke-dasharray="2 1.5"/>
  <text x="22" y="78" class="badge-dist" text-anchor="middle">DIST</text>
  <text x="42" y="78" class="tbl-field-dist">shipmentCode</text>
  <text x="468" y="78" class="tbl-type" text-anchor="end">VARCHAR(32) UNIQUE MÃ ĐƠN HÀ</text>
  <rect x="8" y="91" width="28" height="14" rx="2" fill="#FFFFFF" stroke="#000000" stroke-width="1" stroke-dasharray="2 1.5"/>
  <text x="22" y="102" class="badge-dist" text-anchor="middle">DIST</text>
  <text x="42" y="102" class="tbl-field-dist">merchantId</text>
  <text x="468" y="102" class="tbl-type" text-anchor="end">VARCHAR(64) CHỦ SHOP GỬI</text>
  <circle cx="18" cy="122" r="1.8" fill="#000000"/>
  <text x="30" y="126" class="tbl-field-normal">currentStatus</text>
  <text x="468" y="126" class="tbl-type" text-anchor="end">VARCHAR(32) TRẠNG THÁI HIỆN</text>
  <circle cx="18" cy="146" r="1.8" fill="#000000"/>
  <text x="30" y="150" class="tbl-field-normal">totalDaysInTransit</text>
  <text x="468" y="150" class="tbl-type" text-anchor="end">INT SỐ NGÀY ĐANG LƯU THÔNG</text>
  <circle cx="18" cy="170" r="1.8" fill="#000000"/>
  <text x="30" y="174" class="tbl-field-normal">isSlaBreached</text>
  <text x="468" y="174" class="tbl-type" text-anchor="end">BOOLEAN CỜ VI PHẠM SLA GIAO</text>
</g>

    <!-- KpiDaily (N) -> KpiMonthly (1) Direct Cross -->
    <path d="M 520 140 L 680 140" stroke="#000000" stroke-width="1.8" fill="none" marker-start="url(#crow-many)" marker-end="url(#crow-one)"/>
    <!-- AggregationJob (1) -> KpiDaily (N) via Center Highway Lane 1 -->
    <path d="M 520 464 L 560 464 L 560 220 L 520 220" stroke="#000000" stroke-width="1.8" fill="none" marker-start="url(#crow-one)" marker-end="url(#crow-many)"/>
    
<g transform="translate(1200, 20)">
  <rect width="700" height="1020" rx="6" fill="#FFFFFF" stroke="#000000" stroke-width="1.4"/>
  <rect x="0" y="0" width="700" height="42" rx="6" fill="#F3F4F6" stroke="#000000" stroke-width="1"/>
  <rect x="14" y="12" width="6" height="18" rx="1" fill="#000000"/>
  <text x="28" y="26" class="panel-header">GIẢI THÍCH SƠ BỘ &amp; QUY TẮC DỮ LIỆU: REPORTING-SERVICE</text>
  <rect x="515" y="9" width="171" height="24" rx="4" fill="#FFFFFF" stroke="#000000" stroke-width="1"/>
  <text x="600.5" y="25" font-size="10" font-weight="700" fill="#000000" text-anchor="middle">ANALYTICS &amp; BI ENGINE</text>
  <text x="18" y="70" class="panel-sec-title">▶ BẢN CHIẾU OLAP &amp; PHÂN TÍCH HIỆU SUẤT VẬN HÀNH</text>
  <circle cx="25" cy="88" r="2" fill="#000000"/>
  <text x="36" y="92" class="panel-body">Bản chiếu phân tích OLAP: Tách biệt hoàn toàn cơ sở dữ liệu phân tích báo</text>
  <text x="36" y="110" class="panel-body">cáo với CSDL giao dịch (OLTP), ngăn chặn nghẽn hệ thống.</text>
  <circle cx="25" cy="128" r="2" fill="#000000"/>
  <text x="36" y="132" class="panel-body">Tổng hợp chỉ số KPI tự động: Cronjob ban đêm tự động tính toán tỷ lệ giao</text>
  <text x="36" y="150" class="panel-body">đúng hạn (On-Time Delivery %), năng suất xử lý bưu cục và doanh thu theo</text>
  <text x="36" y="168" class="panel-body">bưu tá.</text>
  <circle cx="25" cy="186" r="2" fill="#000000"/>
  <text x="36" y="190" class="panel-body">Cảnh báo vi phạm cam kết SLA: Cờ isSlaBreached tự động đánh dấu các bưu</text>
  <text x="36" y="208" class="panel-body">kiện bị giam giữ quá thời gian quy định tại kho.</text>
  <text x="18" y="240" class="panel-sec-title">▶ CƠ CHẾ LIÊN KẾT PHÂN TÁN (SAGA LINKAGE)</text>
  <circle cx="25" cy="258" r="2" fill="#000000"/>
  <text x="36" y="262" class="panel-body">Tiêu thụ sự kiện từ RabbitMQ: Lắng nghe toàn bộ sự kiện từ shipment, scan,</text>
  <text x="36" y="280" class="panel-body">delivery và payment để cập nhật các bảng tổng hợp.</text>
  <circle cx="25" cy="298" r="2" fill="#000000"/>
  <text x="36" y="302" class="panel-body">hubCode / merchantId: Cho phép lọc báo cáo linh hoạt theo từng chi nhánh</text>
  <text x="36" y="320" class="panel-body">hoặc từng đối tác thương mại điện tử.</text>
  <rect x="14" y="982" width="672" height="26" rx="4" fill="#F9FAFB" stroke="#000000" stroke-width="1"/>
  <text x="350.0" y="999" font-size="11" font-weight="600" fill="#111827" text-anchor="middle">Engine: PostgreSQL 16 | Workload: OLAP &amp; Batch Aggregation | Indexing: BRIN on reportDate</text>
</g>
  </g>

  <!-- SAGA CONTEXT FOOTER -->
  <g id="FooterSaga" transform="translate(40, 1230)">
    <rect width="1920" height="50" rx="6" fill="#F9FAFB" stroke="#000000" stroke-width="1.4"/>
    <circle cx="25" cy="25" r="5" fill="#000000"/>
    <text x="42" y="29" font-size="12" font-weight="700" fill="#000000">CƠ CHẾ LIÊN KẾT PHÂN TÁN (SAGA):</text>
    <text x="310" y="29" font-size="11.5" fill="#1F2937">Cung cấp REST API số liệu Dashboard cho Giám đốc điều hành &amp; Trưởng bưu cục</text>
    <text x="1900" y="29" font-size="11" font-weight="600" fill="#4B5563" text-anchor="end">Nexus Software Engineering Thesis</text>
  </g>
</svg>
